<?xml version="1.0" encoding="UTF-8" standalone="no"?>
<svg
   xmlns:dc="http://purl.org/dc/elements/1.1/"
   xmlns:cc="http://creativecommons.org/ns#"
   xmlns:rdf="http://www.w3.org/1999/02/22-rdf-syntax-ns#"
   xmlns:svg="http://www.w3.org/2000/svg"
   xmlns="http://www.w3.org/2000/svg"
   xmlns:sodipodi="http://sodipodi.sourceforge.net/DTD/sodipodi-0.dtd"
   xmlns:inkscape="http://www.inkscape.org/namespaces/inkscape"
   width="560pt"
   height="560pt"
   viewBox="0 0 138.2889 138.28889"
   version="1.1"
   id="svg8"
   inkscape:version="1.0 (4035a4fb49, 2020-05-01)"
   sodipodi:docname="puzzlepiece.svg">
  <defs
     id="defs2" />
  <sodipodi:namedview
     id="base"
     pagecolor="#000000"
     bordercolor="#ffffff"
     borderopacity="1"
     inkscape:pageopacity="0"
     inkscape:pageshadow="2"
     inkscape:zoom="0.48456801"
     inkscape:cx="356.49232"
     inkscape:cy="319.57655"
     inkscape:document-units="pt"
     inkscape:current-layer="layer1"
     showgrid="true"
     inkscape:pagecheckerboard="false"
     scale-x="0.7"
     borderlayer="false"
     inkscape:showpageshadow="false"
     showguides="true"
     units="pt"
     inkscape:window-width="1366"
     inkscape:window-height="710"
     inkscape:window-x="0"
     inkscape:window-y="32"
     inkscape:window-maximized="1"
     objecttolerance="21.1"
     gridtolerance="20.2"
     guidetolerance="20.1"
     inkscape:document-rotation="0">
    <inkscape:grid
       type="xygrid"
       id="grid9230"
       spacingx="3.9511112"
       snapvisiblegridlinesonly="true"
       units="pt"
       spacingy="3.9511112"
       visible="true"
       enabled="true"
       color="#ffffff"
       opacity="0.03921569"
       empcolor="#ffffff"
       empopacity="0.18431373" />
  </sodipodi:namedview>
  <metadata
     id="metadata5">
    <rdf:RDF>
      <cc:Work
         rdf:about="">
        <dc:format>image/svg+xml</dc:format>
        <dc:type
           rdf:resource="http://purl.org/dc/dcmitype/StillImage" />
        <dc:title></dc:title>
      </cc:Work>
    </rdf:RDF>
  </metadata>
  <g
     inkscape:label="Layer 1"
     inkscape:groupmode="layer"
     id="layer1"
     transform="translate(0,-69.611127)">
    <path
       id="path845"
       d="m 5.2418637,207.63846 c -0.86849,-0.3076 -2.1639,-1.66348 -2.39928,-2.51132 -0.12474,-0.44949 -0.1807,-5.2883 -0.17881,-15.48335 0.003,-14.55981 0.01,-14.84317 0.34215,-15.57935 0.8444,-1.8654 2.69287,-2.8027 4.61699,-2.34112 0.45482,0.10906 1.35792,0.5607 2.02327,1.01171 1.7609003,1.19368 2.8005203,1.55358 4.5100603,1.56135 1.68903,0.008 2.69815,-0.29628 4.19424,-1.26326 3.75997,-2.43019 6.70612,-8.0867 7.75074,-14.88125 0.3457,-2.24848 0.3909,-7.34502 0.0843,-9.49757 -1.68773,-11.84676 -8.63024,-19.17555 -15.11176,-15.95257 -0.45822,0.22786 -1.1955503,0.67847 -1.6385403,1.00137 -0.99148,0.72273 -1.79832,1.02173 -2.77699,1.02915 -1.53391,0.0112 -3.42956,-1.36296 -3.82035,-2.77022 -0.119,-0.42869 -0.17588,-5.83411 -0.17404,-16.54922 0.003,-15.07528 0.0188,-15.947992 0.3084,-16.585534 0.38509,-0.847738 1.6319,-1.957319 2.48742,-2.213643 0.47614,-0.142657 4.06391,-0.195952 13.1909903,-0.195952 11.87623,0 12.5304,-0.01536 12.41263,-0.291593 -1.94161,-4.553835 -1.84162,-9.392325 0.28129,-13.612993 0.98074,-1.949875 1.98734,-3.301727 3.79204,-5.092724 9.25131,-9.181043 26.64391,-10.460307 38.1712,-2.807573 1.94432,1.290802 4.9624,4.247435 6.08358,5.95973 0.92207,1.40824 1.90301,3.596162 2.32295,5.18122 0.15781,0.595679 0.32736,2.025819 0.37678,3.178086 0.11522,2.68476 -0.24162,4.567879 -1.36301,7.194254 -0.11788,0.276229 0.53763,0.291593 12.44375,0.291593 13.987766,0 13.525036,-0.03532 14.718536,1.123779 0.34119,0.33137 0.77888,0.945143 0.97261,1.363934 0.34837,0.753022 0.35278,0.914338 0.39943,14.565286 0.0444,12.96839 0.0645,13.79682 0.33324,13.68772 5.03823,-2.04527 10.48188,-1.50098 15.04134,1.50394 1.74736,1.1516 4.71148,4.15433 5.98817,6.06618 3.29617,4.93604 4.99997,10.87373 4.99997,17.42487 0,5.50753 -0.97203,9.72906 -3.33788,14.49629 -2.72259,5.48612 -6.94156,9.43044 -11.74158,10.97729 -3.29441,1.06163 -6.80092,1.02095 -10.03449,-0.11648 l -1.20341,-0.4233 -0.0462,13.77636 -0.0462,13.77637 -0.46232,0.94147 c -0.49195,1.00173 -1.28309,1.72578 -2.27194,2.07926 -0.82696,0.29559 -37.547606,0.32904 -38.528746,0.0351 -0.84008,-0.25171 -1.89386,-1.16345 -2.34888,-2.0323 -0.4709,-0.89918 -0.50607,-2.57758 -0.0741,-3.53726 0.18942,-0.42079 0.98346,-1.31132 2.12144,-2.37921 2.09007,-1.96132 3.23078,-3.62904 3.94727,-5.77096 0.39444,-1.17909 0.44635,-1.59271 0.44967,-3.58242 0.004,-2.0369 -0.0402,-2.37535 -0.46072,-3.58242 -0.64953,-1.86403 -1.61414,-3.41432 -3.07753,-4.94603 -6.29582,-6.58975 -18.0666,-6.81761 -24.75522,-0.47923 -3.97502,3.76687 -5.16811,9.21553 -3.02113,13.79715 0.8621,1.83973 1.45686,2.62384 3.57117,4.70811 1.51296,1.49146 1.98811,2.06818 2.14376,2.602 0.24874,0.85296 0.2537,1.77888 0.0143,2.64664 -0.24734,0.89609 -1.6674,2.31615 -2.56347,2.56347 -0.46852,0.12936 -6.20934,0.18207 -19.32838,0.17759 -15.6635203,-0.006 -18.7689603,-0.0444 -19.3283703,-0.24242 z m 34.2412203,-4.9844 c 0,-0.0384 -0.34196,-0.46949 -0.75992,-0.95809 -1.62295,-1.89732 -2.93581,-4.30585 -3.68548,-6.76126 -0.41055,-1.3447 -0.44585,-1.69274 -0.45212,-4.45779 -0.007,-2.60511 0.0417,-3.17295 0.36355,-4.32109 1.95978,-6.99498 7.86907,-12.25461 15.86439,-14.12031 2.03138,-0.47398 6.52929,-0.60131 8.75689,-0.24785 2.38193,0.37795 4.39008,0.99979 6.51249,2.01661 3.08636,1.47868 5.40556,3.26413 7.27519,5.60087 2.67758,3.34659 3.96513,6.87326 3.98132,10.90512 0.0179,4.43616 -1.27036,7.74913 -4.61608,11.87196 l -0.43946,0.54154 h 15.84135 15.841356 v -17.99538 c 0,-9.89749 0.0361,-17.9954 0.0805,-17.9954 0.0442,0 1.1877,0.94203 2.54101,2.09341 4.011,3.41249 5.82529,4.27511 9.0422,4.29925 3.2435,0.0242 5.89069,-1.15884 8.551,-3.82188 2.81783,-2.82072 4.89151,-7.1038 5.80267,-11.98502 0.51764,-2.7731 0.52293,-7.4477 0.0112,-10.25099 -1.24078,-6.80239 -4.76521,-12.3445 -9.37075,-14.73539 -2.44304,-1.26827 -5.58929,-1.53758 -8.07706,-0.69132 -1.9007,0.64652 -3.16168,1.45887 -5.95967,3.83934 -1.35329,1.15138 -2.49676,2.09341 -2.541,2.09341 -0.0442,0 -0.0805,-8.09757 -0.0805,-17.99461 v -17.9946 l -16.994626,-0.0425 -16.99462,-0.0425 2.09215,-2.33273 c 2.92176,-3.257769 3.63031,-4.326742 4.4178,-6.66496 0.32133,-0.954136 0.39131,-1.499875 0.38466,-2.999232 -0.014,-3.151616 -1.01732,-5.447603 -3.5467,-8.116117 -2.90096,-3.060537 -7.27239,-5.22097 -12.44251,-6.149296 -2.78295,-0.499695 -7.16257,-0.498544 -9.97434,0.0025 -3.81685,0.680304 -7.61998,2.233319 -10.2447,4.183427 -1.58162,1.17512 -3.40351,3.121553 -4.22573,4.514648 -1.90574,3.228838 -2.04606,7.177248 -0.37228,10.475922 0.55493,1.093658 1.62095,2.465333 3.82336,4.919605 l 1.94382,2.166113 -17.00415,0.0425 -17.0041703,0.0425 v 13.41243 c 0,7.37686 0.0297,13.41246 0.0661,13.41246 0.0363,0 0.61743,-0.2606 1.29133,-0.5791 4.0126503,-1.89643 9.0868903,-1.25546 12.9000903,1.62949 4.92887,3.72902 8.20798,10.38721 9.33,18.94449 0.37887,2.8895 0.25984,8.42689 -0.24174,11.24711 -0.66711,3.75085 -1.43867,6.2671 -2.78089,9.06924 -1.32689,2.7701 -2.54485,4.50977 -4.55784,6.51009 -1.98449,1.97203 -3.65838,3.0368 -5.92622,3.76973 -2.79776,0.90416 -6.40897,0.66087 -8.9069103,-0.60009 -0.54873,-0.277 -1.03733,-0.50363 -1.08577,-0.50363 -0.0484,0 -0.0881,5.58607 -0.0881,12.41348 v 12.41348 H 23.653464 c 8.70609,0 15.82927,-0.0314 15.82927,-0.0697 z"
       style="fill:#ffffff;stroke-width:0.166624" />
  </g>
</svg>
